<svg id="noun_mustang_121636" xmlns="http://www.w3.org/2000/svg" width="64" height="24" viewBox="0 0 64 24">
  <g id="Group_3" data-name="Group 3" transform="translate(38.899 9.417)">
    <path id="Path_1" data-name="Path 1" d="M18.776,53.451a3.785,3.785,0,0,1,2.109-2.215.052.052,0,0,1,.064.022.052.052,0,0,1-.012.067,2.774,2.774,0,1,0,3.816.31.051.051,0,0,1,0-.068.053.053,0,0,1,.068-.011,3.957,3.957,0,0,1,1.419,1.632,6.12,6.12,0,0,1,.49,1.439.051.051,0,0,1,0,.026,4.211,4.211,0,0,1-8.2-.466.069.069,0,0,1,0-.023A6.189,6.189,0,0,1,18.776,53.451Z" transform="translate(-18.531 -51.232)" fill="#fff"/>
  </g>
  <g id="Group_4" data-name="Group 4" transform="translate(7.654 9.081)">
    <path id="Path_2" data-name="Path 2" d="M68.353,52.588A3.548,3.548,0,0,1,70.729,50.7a.053.053,0,0,1,.062.032.052.052,0,0,1-.023.065,2.758,2.758,0,1,0,2.873.1.051.051,0,0,1-.018-.066.052.052,0,0,1,.064-.026,4.172,4.172,0,0,1,2.565,3.042.076.076,0,0,1,0,.021,4.189,4.189,0,0,1-8.3-.2.058.058,0,0,1,0-.018A4.9,4.9,0,0,1,68.353,52.588Z" transform="translate(-67.956 -50.698)" fill="#fff"/>
  </g>
  <path id="Path_3" data-name="Path 3" d="M8.207,44.608a21.785,21.785,0,0,0,.481-2.292c.022-.335,0-1.593,0-1.606a.055.055,0,0,1,.015-.038.049.049,0,0,1,.038-.014c.006,0,.565.013,1.117.011.435,0,.749-.013.933-.032a53.747,53.747,0,0,0,5.418-1.343.052.052,0,0,1,.057.02.053.053,0,0,1,0,.06l-.166.242c1.066-.234,7.883-1.725,8.471-1.731.213,0,.482-.671.6-1.093a.055.055,0,0,1,.037-.037,22.519,22.519,0,0,1,5.107-.468c.88,0,1.768.02,2.567.068l.236.013a8.912,8.912,0,0,1,3.174.565.1.1,0,0,1,.063.092c0,.086-.122.152-.352.27-.207.105-.49.25-.5.377,0,.013-.006.055.065.113.207.173.5.416.846.7,1.165.958,2.925,2.407,3.508,2.976a.45.45,0,0,0,.32.139c.364,0,.718-.447.722-.451a.051.051,0,0,1,.04-.02c.11,0,11.051-.273,13.61-.283a5.2,5.2,0,0,1,.542.009,4.188,4.188,0,0,1,.81.342,3.844,3.844,0,0,0,.917.373c3.659.338,4.862,1.444,4.911,1.491a.051.051,0,0,1,.01.062l-1.434,2.74.493.386a.053.053,0,0,1,.018.055l-.571,2.059-.338,1.817a.05.05,0,0,1-.054.042l-3.866-.2a.053.053,0,0,1-.05-.052,7.037,7.037,0,0,0-.66-2.569,4.31,4.31,0,0,0-4.193-2.541c-.105,0-.214,0-.322.009a4.165,4.165,0,0,0-3.87,2.8,7.684,7.684,0,0,0-.541,2.64.054.054,0,0,1-.016.038.053.053,0,0,1-.037.015h0l-21.419-.483a.052.052,0,0,1-.05-.047l-.077-.7c0-.044-.3-4.423-4.572-4.6a4.369,4.369,0,0,0-4.473,2.343,5.876,5.876,0,0,0-.6,2.347.05.05,0,0,1-.018.039.052.052,0,0,1-.041.013l-3.806-.485a.055.055,0,0,1-.032-.017l-2.416-2.69a.05.05,0,0,1-.009-.013L8.21,44.644A.074.074,0,0,1,8.207,44.608Zm16.46-5.336h-.016a6.555,6.555,0,0,0-.672.094,17.031,17.031,0,0,1,.323,1.693c.026.166.052.331.079.5l.837.036A6.3,6.3,0,0,0,24.667,39.272Zm8.168-1.287a8.254,8.254,0,0,0-1.271-.065,20.632,20.632,0,0,0-5.142.541c-.28.183.173,1.993.531,3.117l10.5.238C36.958,41.253,34.244,38.232,32.835,37.984Zm-9.844,6.583.774.484A5.311,5.311,0,0,1,25.7,47.818l.05.183a.105.105,0,0,0,.1.077l.194.01,14.109.144h0a.1.1,0,0,0,0-.209l-13.828-.653A6.418,6.418,0,0,0,24.975,45.1l18.453-.251a.1.1,0,0,0,0-.209l-20.379-.269h0a.1.1,0,0,0-.056.192Zm-.171-3.508c.023.144.045.287.068.432l.855.036c-.015-.1-.031-.2-.047-.3a16.663,16.663,0,0,0-.338-1.755c-.248.046-.517.1-.8.153C22.672,40.1,22.747,40.588,22.82,41.059ZM21.3,41.1c.017.11.034.219.052.328l.9.038-.038-.241c-.075-.485-.152-.985-.267-1.47-.284.059-.568.119-.843.18C21.183,40.32,21.245,40.715,21.3,41.1Zm-2.173.006c.039.147.1.239.148.241.222.007.766.029,1.441.057l-.017-.113c-.064-.4-.127-.815-.21-1.218a7.252,7.252,0,0,0-1.362.38A1.06,1.06,0,0,0,19.131,41.1Z" transform="translate(-8.206 -36.287)" fill="#fff"/>
</svg>
