<svg xmlns="http://www.w3.org/2000/svg" width="9.573" height="16.866" viewBox="0 0 9.573 16.866">
  <path id="facebook" d="M6.413,16.866h-2.7a.819.819,0,0,1-.818-.818V9.956H1.318A.819.819,0,0,1,.5,9.137V6.527a.819.819,0,0,1,.818-.818H2.894V4.4A4.451,4.451,0,0,1,4.071,1.213,4.239,4.239,0,0,1,7.2,0l2.06,0a.819.819,0,0,1,.817.818V3.245a.819.819,0,0,1-.818.818H7.868c-.423,0-.531.085-.554.111-.038.043-.083.165-.083.5V5.709H9.151a.832.832,0,0,1,.4.1.821.821,0,0,1,.421.716v2.61a.819.819,0,0,1-.818.818H7.231v6.092A.819.819,0,0,1,6.413,16.866Zm-2.53-.989h2.36V9.513a.547.547,0,0,1,.546-.546h2.2V6.7h-2.2a.547.547,0,0,1-.546-.546V4.676A1.684,1.684,0,0,1,6.573,3.52a1.676,1.676,0,0,1,1.295-.445H9.084V.992L7.2.989A3.121,3.121,0,0,0,3.883,4.4v1.75a.547.547,0,0,1-.546.546H1.489V8.967H3.337a.547.547,0,0,1,.546.546ZM9.254.992h0Zm0,0" transform="translate(-0.5)" fill="#fff"/>
</svg>
