<svg xmlns="http://www.w3.org/2000/svg" width="11.576" height="16.463" viewBox="0 0 11.576 16.463">
  <g id="placeholder" transform="translate(-76)">
    <g id="Group_2185" data-name="Group 2185" transform="translate(76)">
      <g id="Group_2184" data-name="Group 2184">
        <path id="Path_1325" data-name="Path 1325" d="M81.788,0a5.789,5.789,0,0,0-4.924,8.831l4.594,7.4a.482.482,0,0,0,.41.228h0a.482.482,0,0,0,.41-.234l4.477-7.475A5.789,5.789,0,0,0,81.788,0Zm4.144,8.258-4.071,6.8L77.684,8.323a4.826,4.826,0,1,1,8.248-.065Z" transform="translate(-76)" fill="#fff"/>
      </g>
    </g>
    <g id="Group_2187" data-name="Group 2187" transform="translate(78.894 2.894)">
      <g id="Group_2186" data-name="Group 2186">
        <path id="Path_1326" data-name="Path 1326" d="M168.894,90a2.894,2.894,0,1,0,2.894,2.894A2.9,2.9,0,0,0,168.894,90Zm0,4.83a1.936,1.936,0,1,1,1.932-1.936A1.937,1.937,0,0,1,168.894,94.83Z" transform="translate(-166 -90)" fill="#fff"/>
      </g>
    </g>
  </g>
</svg>
