<svg xmlns="http://www.w3.org/2000/svg" width="15.628" height="15.628" viewBox="0 0 15.628 15.628">
  <g id="phone" transform="translate(0)">
    <path id="Path_1324" data-name="Path 1324" d="M11.232,15.628a4.354,4.354,0,0,1-1.494-.267,15.928,15.928,0,0,1-5.784-3.687A15.928,15.928,0,0,1,.267,5.89,4.323,4.323,0,0,1,.047,3.765,4.433,4.433,0,0,1,2.325.52,4.352,4.352,0,0,1,4.408,0a.488.488,0,0,1,.478.386l.767,3.577a.488.488,0,0,1-.132.448L4.21,5.72a12.855,12.855,0,0,0,5.7,5.7l1.31-1.31a.489.489,0,0,1,.448-.132l3.577.767a.488.488,0,0,1,.386.478,4.351,4.351,0,0,1-.521,2.084,4.433,4.433,0,0,1-3.245,2.278A4.344,4.344,0,0,1,11.232,15.628ZM4.018,1A3.422,3.422,0,0,0,1.185,5.556a14.812,14.812,0,0,0,8.886,8.886A3.422,3.422,0,0,0,14.63,11.61l-2.91-.624-1.368,1.368a.488.488,0,0,1-.553.1A13.828,13.828,0,0,1,3.177,5.829a.488.488,0,0,1,.1-.553L4.642,3.908Z" transform="translate(0 0)" fill="#fff"/>
  </g>
</svg>
